<svg xmlns="http://www.w3.org/2000/svg" xml:space="preserve" stroke-linecap="round"
    stroke-linejoin="round" stroke-miterlimit="10" clip-rule="evenodd" viewBox="0 0 24 24"><g fill="#27778d"><path d="M2.913 5.132c0-.775.354-1.452.87-1.998.51-.542 1.21-.991 2.012-1.35C7.399 1.063 9.557.64 11.895.64c2.339 0 4.496.423 6.101 1.142.801.36 1.502.81 2.013 1.35.515.547.869 1.224.869 2v13.473c0 .776-.354 1.452-.87 1.999-.51.541-1.21.99-2.012 1.35-1.605.72-3.762 1.143-6.1 1.143-2.339 0-4.497-.424-6.101-1.143-.802-.36-1.502-.809-2.013-1.35-.515-.547-.87-1.223-.87-1.999V5.132Zm1.684 0c0 .233.102.516.41.843.313.331.805.668 1.477.97 1.341.6 3.254.994 5.411.994 2.158 0 4.07-.393 5.412-.995.672-.301 1.164-.638 1.477-.97.308-.326.41-.61.41-.842 0-.232-.102-.515-.41-.842-.313-.332-.805-.668-1.477-.97-1.342-.601-3.254-.995-5.412-.995-2.157 0-4.07.394-5.411.995-.672.302-1.164.638-1.477.97-.308.327-.41.61-.41.842ZM19.194 7.82c-.36.247-.764.468-1.198.662-1.605.72-3.762 1.143-6.1 1.143-2.339 0-4.497-.424-6.101-1.143a7.638 7.638 0 0 1-1.198-.662v10.787c0 .233.102.516.41.843.313.331.805.668 1.477.97 1.341.6 3.254.994 5.411.994 2.158 0 4.07-.393 5.412-.995.672-.301 1.164-.638 1.477-.97.308-.326.41-.61.41-.842V7.82Z"/><path d="M8.458 10.608c-.913 0-1.654.74-1.654 1.655v5.855c0 .914.74 1.655 1.654 1.655h6.874c.914 0 1.655-.74 1.655-1.655v-5.855c0-.914-.74-1.655-1.655-1.655H8.458Zm1.91 3.183a.51.51 0 0 1 .754-.446l2.546 1.4a.51.51 0 0 1 0 .892l-2.546 1.4a.51.51 0 0 1-.754-.446v-2.8Z"/></g></svg>